#N canvas 952 0 958 978 12;
#X obj 66 295 rfft~;
#X obj 65 336 *~;
#X obj 101 337 *~;
#X obj 64 377 +~;
#X obj 64 414 sqrt~;
#X obj 116 587 tabwrite~ magnitude;
#X obj 174 536 tgl 15 0 empty empty empty 0 -6 0 8 -262144 -1 -1 1
1;
#N canvas 0 0 450 300 (subpatch) 0;
#X array magnitude 100 float 0;
#X coords 0 50 32 0 200 140 1;
#X restore 275 225 graph;
#X text 73 25 3.8.1.1. rfft array;
#X text 145 334 Conversion;
#X text 335 521 www.pd-tutorial.com;
#X text 336 493 Johannes Kreidler;
#X obj 59 155 adc~;
#X obj 167 560 metro 25;
#N canvas 1431 502 450 300 changeacc 1;
#X obj 120 83 inlet;
#X obj 124 204 outlet;
#X obj 219 157 block~ 2048;
#X connect 0 0 1 0;
#X restore 107 228 pd changeacc;
#X connect 0 0 1 0;
#X connect 0 0 1 1;
#X connect 0 1 2 0;
#X connect 0 1 2 1;
#X connect 1 0 3 0;
#X connect 2 0 3 1;
#X connect 3 0 4 0;
#X connect 4 0 5 0;
#X connect 6 0 13 0;
#X connect 12 0 0 0;
#X connect 12 1 0 0;
#X connect 13 0 5 0;
