#N canvas 952 0 958 978 10;
#X obj 184 318 adc~;
#X floatatom 215 431 5 0 0 0 - - -;
#X floatatom 350 435 5 0 0 0 - - -;
#X obj 192 372 fiddle~ 2048 1 1 1;
#X obj 350 486 > 50;
#X obj 274 703 dac~;
#X obj 273 633 *~ 0.7;
#X obj 360 573 *~;
#X obj 339 662 *~;
#X obj 159 560 *~;
#X obj 80 691 dac~;
#X obj 79 621 *~ 0.7;
#X obj 145 650 *~;
#X obj 70 588 osc~ 440;
#X obj 264 600 osc~ 660;
#X obj 129 490 < 35;
#X obj 217 490 > 45;
#X connect 0 0 3 0;
#X connect 1 0 15 0;
#X connect 1 0 16 0;
#X connect 2 0 4 0;
#X connect 3 2 1 0;
#X connect 3 3 2 0;
#X connect 4 0 7 1;
#X connect 4 0 9 1;
#X connect 6 0 8 0;
#X connect 7 0 8 1;
#X connect 8 0 5 0;
#X connect 8 0 5 1;
#X connect 9 0 12 1;
#X connect 11 0 12 0;
#X connect 12 0 10 0;
#X connect 12 0 10 1;
#X connect 13 0 11 0;
#X connect 14 0 6 0;
#X connect 15 0 9 0;
#X connect 16 0 7 0;
